{"title":"Ishq Chadha Hai Video Song By Darshan Raval - truHD Xclusive ","uid":12422515,"size":24518248,"categoryP":"video","categoryS":"music_videos","magnet":"?xt=urn:btih:f7b8557c9e0e6d961db8178448415445e025f8dd&amp;dn=Ishq+Chadha+Hai+Video+Song+By+Darshan+Raval+-+truHD+Xclusive+&amp;tr=udp%3A%2F%2Ftracker.openbittorrent.com%3A80&amp;tr=udp%3A%2F%2Fopen.demonii.com%3A1337&amp;tr=udp%3A%2F%2Ftracker.coppersurfer.tk%3A6969&amp;tr=udp%3A%2F%2Fexodus.desync.com%3A6969","seeders":0,"leechers":0,"uploader":"Aainul","files":5,"time":1442322377,"description":"Ishq Chadha Hai Video Song By Darshan Raval - Xclusive Full HD - Team truHD HEVC\n\n\n\nTeam truHD HEVC Presents\n\nSource: WEB-DL\n\nEncoder: truHD HEVC Encoding Team\n\nEncoded File Info:\n\nGeneral\n\nFormat : MPEG-4\nFormat profile : Base Media\nCodec ID : iso4\nFile size : 23.2 MiB\nDuration : 2mn 58s\nOverall bit rate : 1 086 Kbps\nEncoded date : UTC 2015-09-13 15:58:22\nTagged date : UTC 2015-09-13 15:58:22\n\nVideo\nID : 1\nFormat : HEVC\nFormat/Info : High Efficiency Video Coding\nCodec ID : hvc1\nCodec ID/Info : High Efficiency Video Coding\nDuration : 2mn 58s\nBit rate : 892 Kbps\nMaximum bit rate : 1 979 Kbps\nWidth : 1 920 pixels\nHeight : 1 080 pixels\nDisplay aspect ratio : 16:9\nFrame rate mode : Constant\nFrame rate : 25.000 fps\nBits/(Pixel*Frame) : 0.017\nStream size : 19.0 MiB (82%)\nTitle : Video\nEncoded date : UTC 2015-09-13 15:58:22\nTagged date : UTC 2015-09-13 15:58:24\n\nAudio\nID : 2\nFormat : AC-3\nFormat/Info : Audio Coding 3\nMode extension : CM (complete main)\nFormat settings, Endianness : Big\nCodec ID : ac-3\nDuration : 2mn 58s\nBit rate mode : Constant\nBit rate : 192 Kbps\nMaximum bit rate : 203 Kbps\nChannel(s) : 6 channels\nChannel positions : Front: L C R, Side: L R, LFE\nSampling rate : 48.0 KHz\nBit depth : 16 bits\nCompression mode : Lossy\nStream size : 4.10 MiB (18%)\nTitle : Team truHD truAudio\nEncoded date : UTC 2015-09-13 15:58:24\nTagged date : UTC 2015-09-13 15:58:24\n\n\nScreenShots:\n &lt;a href=&quot;\nhttp://i.imgur.com/IiBZrTJ.jpg&quot; rel=&quot;nofollow&quot; target=&quot;_NEW&quot;&gt;\nhttp://i.imgur.com/IiBZrTJ.jpg&lt;/a&gt;\n\nLike Us On FB And Request Accepted\n\nKickAssTorrents:       &lt;a href=&quot;\nhttps://kat.cr/user/Aainul/&quot; rel=&quot;nofollow&quot; target=&quot;_NEW&quot;&gt;\nhttps://kat.cr/user/Aainul/&lt;/a&gt;\nGloTorrents:       &lt;a href=&quot;\nhttps://glodls.to/user/Aainul&quot; rel=&quot;nofollow&quot; target=&quot;_NEW&quot;&gt;\nhttps://glodls.to/user/Aainul&lt;/a&gt;\nThePirateBay:       &lt;a href=&quot;\nhttps://thepiratebay.vg/user/Aainul/&quot; rel=&quot;nofollow&quot; target=&quot;_NEW&quot;&gt;\nhttps://thepiratebay.vg/user/Aainul/&lt;/a&gt;\n1337x Torrents:       &lt;a href=&quot;\nhttp://1337.to/user/Aainul/&quot; rel=&quot;nofollow&quot; target=&quot;_NEW&quot;&gt;\nhttp://1337.to/user/Aainul/&lt;/a&gt;\n\n\nNote: All Videos Uploaded By Me Are For Review Purpose. If You Like IT, Google IT And Buy IT - Thanks\n\n\nKing Regards\ntruHD HEVC Team\n\nShare Among Friends And Relatives","torrent":{"xt":"urn:btih:f7b8557c9e0e6d961db8178448415445e025f8dd","amp;dn":"Ishq+Chadha+Hai+Video+Song+By+Darshan+Raval+-+truHD+Xclusive+","amp;tr":["udp%3A%2F%2Ftracker.openbittorrent.com%3A80","udp%3A%2F%2Fopen.demonii.com%3A1337","udp%3A%2F%2Ftracker.coppersurfer.tk%3A6969","udp%3A%2F%2Fexodus.desync.com%3A6969"],"infoHash":"f7b8557c9e0e6d961db8178448415445e025f8dd","infoHashBuffer":{"type":"Buffer","data":[247,184,85,124,158,14,109,150,29,184,23,132,72,65,84,69,224,37,248,221]},"announce":[],"urlList":[]}}